<mxfile host="app.diagrams.net" modified="2023-06-16T15:43:28.805Z" agent="Mozilla/5.0 (Windows NT 10.0; Win64; x64) AppleWebKit/537.36 (KHTML, like Gecko) Chrome/114.0.0.0 Safari/537.36" version="21.4.0" etag="cHA92Y3RBKzEkp4D3xqQ" type="github">
  <diagram name="Trang-1" id="JKaDu8JljoJ4Vd6dlaXo">
    <mxGraphModel>
      <root>
        <mxCell id="0" />
        <mxCell id="1" parent="0" />
      </root>
    </mxGraphModel>
  </diagram>
</mxfile>
